<?xml version="1.0" encoding="utf-8"?>
<!-- Generator: Adobe Illustrator 18.1.1, SVG Export Plug-In . SVG Version: 6.00 Build 0)  -->
<svg version="1.1" id="Ebene_1" xmlns="http://www.w3.org/2000/svg" xmlns:xlink="http://www.w3.org/1999/xlink" x="0px" y="0px"
	 viewBox="0 0 612 792" enable-background="new 0 0 612 792" xml:space="preserve">
<rect y="248.6" fill="#FFFFFF" width="612" height="294.8"/>
<g>
	<g>
		<path d="M208.2,353.1H169c-0.7,0-1.2-0.5-1.2-1.2c0-0.7,0.5-1.2,1.2-1.2h39.2c0.7,0,1.2,0.5,1.2,1.2
			C209.4,352.6,208.9,353.1,208.2,353.1z"/>
		<path d="M238.2,365.6h-62.8c-0.7,0-1.2-0.5-1.2-1.2c0-0.7,0.5-1.2,1.2-1.2h62.8c0.7,0,1.2,0.5,1.2,1.2
			C239.4,365.1,238.9,365.6,238.2,365.6z"/>
		<path d="M197,346.9h-30.3c-0.7,0-1.2-0.5-1.2-1.2s0.5-1.2,1.2-1.2H197c0.7,0,1.2,0.5,1.2,1.2S197.7,346.9,197,346.9z"/>
		<path d="M242.2,371.9h-62.6c-0.7,0-1.2-0.5-1.2-1.2s0.5-1.2,1.2-1.2h62.6c0.7,0,1.2,0.5,1.2,1.2S242.8,371.9,242.2,371.9z"/>
		<path d="M187.2,340.6h-21.6c-0.7,0-1.2-0.5-1.2-1.2c0-0.7,0.5-1.2,1.2-1.2h21.6c0.7,0,1.2,0.5,1.2,1.2
			C188.4,340.1,187.8,340.6,187.2,340.6z"/>
		<path d="M180.2,334.4h-14.4c-0.7,0-1.2-0.5-1.2-1.2s0.5-1.2,1.2-1.2h14.4c0.7,0,1.2,0.5,1.2,1.2S180.8,334.4,180.2,334.4z"/>
		<path d="M239.4,346.9h-8.2c-0.7,0-1.2-0.5-1.2-1.2s0.5-1.2,1.2-1.2h8.2c0.7,0,1.2,0.5,1.2,1.2S240,346.9,239.4,346.9z"/>
		<path d="M247,378.1h-62.3c-0.7,0-1.2-0.5-1.2-1.2s0.5-1.2,1.2-1.2H247c0.7,0,1.2,0.5,1.2,1.2S247.6,378.1,247,378.1z"/>
		<path d="M253.7,384.4h-62.2c-0.7,0-1.2-0.5-1.2-1.2s0.5-1.2,1.2-1.2h62.2c0.7,0,1.2,0.5,1.2,1.2S254.4,384.4,253.7,384.4z"/>
		<path d="M262.5,390.6h-58.4c-0.7,0-1.2-0.5-1.2-1.2s0.5-1.2,1.2-1.2h58.4c0.7,0,1.2,0.5,1.2,1.2S263.1,390.6,262.5,390.6z"/>
		<path d="M250.5,353.1H221c-0.7,0-1.2-0.5-1.2-1.2c0-0.7,0.5-1.2,1.2-1.2h29.5c0.7,0,1.2,0.5,1.2,1.2
			C251.8,352.6,251.2,353.1,250.5,353.1z"/>
		<path d="M176.9,328.1h-9.2c-0.7,0-1.2-0.5-1.2-1.2s0.5-1.2,1.2-1.2h9.2c0.7,0,1.2,0.5,1.2,1.2S177.6,328.1,176.9,328.1z"/>
		<path d="M296.6,403.2H207c-0.7,0-1.2-0.5-1.2-1.2c0-0.7,0.5-1.2,1.2-1.2h89.6c0.7,0,1.2,0.5,1.2,1.2
			C297.8,402.6,297.2,403.2,296.6,403.2z"/>
		<path d="M238.9,359.4h-67c-0.7,0-1.2-0.5-1.2-1.2s0.5-1.2,1.2-1.2h67c0.7,0,1.2,0.5,1.2,1.2S239.6,359.4,238.9,359.4z"/>
		<path d="M177.3,321.9h-4.5c-0.7,0-1.2-0.5-1.2-1.2c0-0.7,0.5-1.2,1.2-1.2h4.5c0.7,0,1.2,0.5,1.2,1.2
			C178.6,321.3,177.9,321.9,177.3,321.9z"/>
		<path d="M206.4,433.2h-0.8c-0.7,0-1.2-0.5-1.2-1.2c0-0.7,0.5-1.2,1.2-1.2h0.8c0.7,0,1.2,0.5,1.2,1.2
			C207.7,432.6,207.1,433.2,206.4,433.2z"/>
		<path d="M215.9,409.4h-10.3c-0.7,0-1.2-0.5-1.2-1.2s0.5-1.2,1.2-1.2h10.3c0.7,0,1.2,0.5,1.2,1.2S216.5,409.4,215.9,409.4z"/>
		<path d="M275,396.9h-69.4c-0.7,0-1.2-0.5-1.2-1.2s0.5-1.2,1.2-1.2H275c0.7,0,1.2,0.5,1.2,1.2S275.6,396.9,275,396.9z"/>
		<path d="M213.2,415.7h-10c-0.7,0-1.2-0.5-1.2-1.2c0-0.7,0.5-1.2,1.2-1.2h10c0.7,0,1.2,0.5,1.2,1.2
			C214.4,415.1,213.9,415.7,213.2,415.7z"/>
		<path d="M281.8,409.4h-37c-0.7,0-1.2-0.5-1.2-1.2s0.5-1.2,1.2-1.2h37c0.7,0,1.2,0.5,1.2,1.2S282.4,409.4,281.8,409.4z"/>
		<path d="M208.4,428.2h-8.6c-0.7,0-1.2-0.5-1.2-1.2s0.5-1.2,1.2-1.2h8.6c0.7,0,1.2,0.5,1.2,1.2S209.1,428.2,208.4,428.2z"/>
		<path d="M210.8,421.9h-9.9c-0.7,0-1.2-0.5-1.2-1.2s0.5-1.2,1.2-1.2h9.9c0.7,0,1.2,0.5,1.2,1.2S211.4,421.9,210.8,421.9z"/>
	</g>
	<g enable-background="new    ">
		<path fill="#1D1D1B" d="M240,462.2h-7.2v-38.3h7.2v13.3c0-0.8,0.3-1.4,0.8-2c0.6-0.6,1.2-0.8,1.9-0.8h15.3c0.8,0,1.4,0.3,2,0.8
			c0.5,0.6,0.8,1.2,0.8,2v22.3c0,0.8-0.3,1.4-0.8,2c-0.5,0.5-1.2,0.8-2,0.8h-15.3c-0.7,0-1.4-0.3-1.9-0.8c-0.6-0.5-0.8-1.2-0.8-2
			V462.2z M240,455.2h13.7v-13.9h-10.9c-0.7,0-1.4,0.3-1.9,0.8c-0.6,0.6-0.8,1.2-0.8,2V455.2z"/>
		<path fill="#1D1D1B" d="M273.5,423.9v31.3h2.5v7h-6.9c-0.8,0-1.4-0.3-2-0.8c-0.5-0.5-0.8-1.2-0.8-1.9v-35.5H273.5z"/>
		<path fill="#1D1D1B" d="M299.9,434.3h7.2v27.9h-7.2v-2.8c0,0.8-0.3,1.4-0.8,2c-0.6,0.5-1.2,0.8-2,0.8h-12.9c-0.8,0-1.4-0.3-2-0.8
			c-0.5-0.5-0.8-1.2-0.8-2v-25.1h7.2v20.9h8.5c0.8,0,1.4-0.3,2-0.8c0.6-0.5,0.8-1.2,0.8-2V434.3z"/>
		<path fill="#1D1D1B" d="M312.4,437.1c0-0.8,0.3-1.4,0.8-2c0.5-0.5,1.2-0.8,2-0.8h22.6c0.7,0,1.4,0.3,1.9,0.8
			c0.5,0.5,0.8,1.2,0.8,2V449c0,0.7-0.3,1.4-0.8,2c-0.5,0.6-1.2,0.8-2,0.8h-18.1v3.5h20.9v7h-25.3c-0.8,0-1.4-0.3-2-0.8
			c-0.5-0.5-0.8-1.2-0.8-2V437.1z M319.6,441.3v3.5h13.7v-3.5H319.6z"/>
		<path fill="#1D1D1B" d="M353,462.2h-7.2v-38.3h7.2v13.3c0-0.8,0.3-1.4,0.8-2c0.6-0.6,1.2-0.8,2-0.8h15.3c0.8,0,1.4,0.3,2,0.8
			c0.5,0.6,0.8,1.2,0.8,2v22.3c0,0.8-0.3,1.4-0.8,2c-0.5,0.5-1.2,0.8-2,0.8h-15.3c-0.7,0-1.4-0.3-2-0.8c-0.6-0.5-0.8-1.2-0.8-2
			V462.2z M353,455.2h13.7v-13.9h-10.9c-0.7,0-1.4,0.3-2,0.8c-0.6,0.6-0.8,1.2-0.8,2V455.2z"/>
		<path fill="#1D1D1B" d="M379.3,424.6c0-0.4,0.2-0.7,0.7-0.7h5.8c0.4,0,0.7,0.2,0.7,0.7v5.6c0,0.4-0.2,0.7-0.7,0.7h-5.8
			c-0.4,0-0.7-0.2-0.7-0.7V424.6z M386.5,462.2h-7.2v-27.9h7.2V462.2z"/>
		<path fill="#1D1D1B" d="M399,462.2h-7.2v-27.9h7.2v2.8c0-0.8,0.3-1.4,0.8-2c0.6-0.5,1.2-0.8,2-0.8h8.1c0.8,0,1.4,0.3,2,0.8
			c0.5,0.5,0.8,1.2,0.8,2v5.9h-7.2v-1.7h-3.8c-0.7,0-1.4,0.3-1.9,0.8c-0.5,0.5-0.8,1.2-0.8,2V462.2z"/>
		<path fill="#1D1D1B" d="M437.8,459.4c0,0.8-0.3,1.4-0.8,2c-0.6,0.5-1.2,0.8-1.9,0.8h-15.3c-0.8,0-1.4-0.3-2-0.8
			c-0.5-0.5-0.8-1.2-0.8-2v-22.3c0-0.7,0.3-1.4,0.8-2c0.5-0.6,1.2-0.8,2-0.8H435c0.7,0,1.4,0.3,1.9,0.8c0.6,0.6,0.8,1.2,0.8,2v-13.3
			h7.2v38.3h-7.2V459.4z M435,455.2c0.7,0,1.4-0.3,1.9-0.8c0.6-0.5,0.8-1.2,0.8-2v-11.1h-13.7v13.9H435z"/>
	</g>
</g>
</svg>
