<?xml version="1.0" encoding="utf-8"?>
<!-- Generator: Adobe Illustrator 18.1.1, SVG Export Plug-In . SVG Version: 6.00 Build 0)  -->
<svg version="1.1" id="Ebene_1" xmlns="http://www.w3.org/2000/svg" xmlns:xlink="http://www.w3.org/1999/xlink" x="0px" y="0px"
	 viewBox="0 0 612 792" enable-background="new 0 0 612 792" xml:space="preserve">
<rect y="396" width="306" height="147.4"/>
<rect y="248.6" fill="#FFFFFF" width="306" height="147.4"/>
<g>
	<g>
		<path d="M104.1,300.8H84.5c-0.3,0-0.6-0.3-0.6-0.6s0.3-0.6,0.6-0.6h19.6c0.3,0,0.6,0.3,0.6,0.6S104.4,300.8,104.1,300.8z"/>
		<path d="M119.1,307.1H87.7c-0.3,0-0.6-0.3-0.6-0.6c0-0.3,0.3-0.6,0.6-0.6h31.4c0.3,0,0.6,0.3,0.6,0.6
			C119.7,306.8,119.4,307.1,119.1,307.1z"/>
		<path d="M98.5,297.7H83.3c-0.3,0-0.6-0.3-0.6-0.6c0-0.3,0.3-0.6,0.6-0.6h15.1c0.3,0,0.6,0.3,0.6,0.6
			C99.1,297.4,98.8,297.7,98.5,297.7z"/>
		<path d="M121.1,310.2H89.8c-0.3,0-0.6-0.3-0.6-0.6c0-0.3,0.3-0.6,0.6-0.6h31.3c0.3,0,0.6,0.3,0.6,0.6
			C121.7,309.9,121.4,310.2,121.1,310.2z"/>
		<path d="M93.6,294.6H82.8c-0.3,0-0.6-0.3-0.6-0.6c0-0.3,0.3-0.6,0.6-0.6h10.8c0.3,0,0.6,0.3,0.6,0.6
			C94.2,294.3,93.9,294.6,93.6,294.6z"/>
		<path d="M90.1,291.5h-7.2c-0.3,0-0.6-0.3-0.6-0.6c0-0.3,0.3-0.6,0.6-0.6h7.2c0.3,0,0.6,0.3,0.6,0.6
			C90.7,291.2,90.4,291.5,90.1,291.5z"/>
		<path d="M119.7,297.7h-4.1c-0.3,0-0.6-0.3-0.6-0.6c0-0.3,0.3-0.6,0.6-0.6h4.1c0.3,0,0.6,0.3,0.6,0.6
			C120.3,297.4,120,297.7,119.7,297.7z"/>
		<path d="M123.5,313.3H92.3c-0.3,0-0.6-0.3-0.6-0.6c0-0.3,0.3-0.6,0.6-0.6h31.1c0.3,0,0.6,0.3,0.6,0.6
			C124.1,313.1,123.8,313.3,123.5,313.3z"/>
		<path d="M126.9,316.5H95.8c-0.3,0-0.6-0.3-0.6-0.6c0-0.3,0.3-0.6,0.6-0.6h31.1c0.3,0,0.6,0.3,0.6,0.6
			C127.5,316.2,127.2,316.5,126.9,316.5z"/>
		<path d="M131.2,319.6h-29.2c-0.3,0-0.6-0.3-0.6-0.6c0-0.3,0.3-0.6,0.6-0.6h29.2c0.3,0,0.6,0.3,0.6,0.6
			C131.9,319.3,131.6,319.6,131.2,319.6z"/>
		<path d="M125.3,300.8h-14.8c-0.3,0-0.6-0.3-0.6-0.6s0.3-0.6,0.6-0.6h14.8c0.3,0,0.6,0.3,0.6,0.6S125.6,300.8,125.3,300.8z"/>
		<path d="M88.5,288.3h-4.6c-0.3,0-0.6-0.3-0.6-0.6c0-0.3,0.3-0.6,0.6-0.6h4.6c0.3,0,0.6,0.3,0.6,0.6
			C89.1,288.1,88.8,288.3,88.5,288.3z"/>
		<path d="M148.3,325.9h-44.8c-0.3,0-0.6-0.3-0.6-0.6c0-0.3,0.3-0.6,0.6-0.6h44.8c0.3,0,0.6,0.3,0.6,0.6
			C148.9,325.6,148.6,325.9,148.3,325.9z"/>
		<path d="M119.4,304H86c-0.3,0-0.6-0.3-0.6-0.6c0-0.3,0.3-0.6,0.6-0.6h33.5c0.3,0,0.6,0.3,0.6,0.6C120.1,303.7,119.8,304,119.4,304
			z"/>
		<path d="M88.7,285.2h-2.3c-0.3,0-0.6-0.3-0.6-0.6s0.3-0.6,0.6-0.6h2.3c0.3,0,0.6,0.3,0.6,0.6S89,285.2,88.7,285.2z"/>
		<path d="M103.2,340.9h-0.4c-0.3,0-0.6-0.3-0.6-0.6s0.3-0.6,0.6-0.6h0.4c0.3,0,0.6,0.3,0.6,0.6S103.5,340.9,103.2,340.9z"/>
		<path d="M108,329h-5.2c-0.3,0-0.6-0.3-0.6-0.6c0-0.3,0.3-0.6,0.6-0.6h5.2c0.3,0,0.6,0.3,0.6,0.6C108.6,328.7,108.3,329,108,329z"
			/>
		<path d="M137.5,322.7h-34.7c-0.3,0-0.6-0.3-0.6-0.6c0-0.3,0.3-0.6,0.6-0.6h34.7c0.3,0,0.6,0.3,0.6,0.6
			C138.1,322.4,137.8,322.7,137.5,322.7z"/>
		<path d="M106.6,332.1h-5c-0.3,0-0.6-0.3-0.6-0.6s0.3-0.6,0.6-0.6h5c0.3,0,0.6,0.3,0.6,0.6S106.9,332.1,106.6,332.1z"/>
		<path d="M140.9,329h-18.5c-0.3,0-0.6-0.3-0.6-0.6c0-0.3,0.3-0.6,0.6-0.6h18.5c0.3,0,0.6,0.3,0.6,0.6
			C141.5,328.7,141.2,329,140.9,329z"/>
		<path d="M104.2,338.4h-4.3c-0.3,0-0.6-0.3-0.6-0.6c0-0.3,0.3-0.6,0.6-0.6h4.3c0.3,0,0.6,0.3,0.6,0.6
			C104.8,338.1,104.5,338.4,104.2,338.4z"/>
		<path d="M105.4,335.2h-4.9c-0.3,0-0.6-0.3-0.6-0.6c0-0.3,0.3-0.6,0.6-0.6h4.9c0.3,0,0.6,0.3,0.6,0.6
			C106,335,105.7,335.2,105.4,335.2z"/>
	</g>
	<g enable-background="new    ">
		<path fill="#1D1D1B" d="M120,355.4h-3.6v-19.1h3.6v6.6c0-0.4,0.1-0.7,0.4-1c0.3-0.3,0.6-0.4,1-0.4h7.7c0.4,0,0.7,0.1,1,0.4
			c0.3,0.3,0.4,0.6,0.4,1V354c0,0.4-0.1,0.7-0.4,1c-0.3,0.3-0.6,0.4-1,0.4h-7.7c-0.4,0-0.7-0.1-1-0.4c-0.3-0.3-0.4-0.6-0.4-1V355.4z
			 M120,351.9h6.9v-7h-5.5c-0.4,0-0.7,0.1-1,0.4c-0.3,0.3-0.4,0.6-0.4,1V351.9z"/>
		<path fill="#1D1D1B" d="M136.7,336.2v15.7h1.3v3.5h-3.5c-0.4,0-0.7-0.1-1-0.4c-0.3-0.3-0.4-0.6-0.4-1v-17.8H136.7z"/>
		<path fill="#1D1D1B" d="M149.9,341.4h3.6v13.9h-3.6V354c0,0.4-0.1,0.7-0.4,1c-0.3,0.3-0.6,0.4-1,0.4h-6.5c-0.4,0-0.7-0.1-1-0.4
			c-0.3-0.3-0.4-0.6-0.4-1v-12.5h3.6v10.4h4.3c0.4,0,0.7-0.1,1-0.4c0.3-0.3,0.4-0.6,0.4-1V341.4z"/>
		<path fill="#1D1D1B" d="M156.2,342.8c0-0.4,0.1-0.7,0.4-1c0.3-0.3,0.6-0.4,1-0.4h11.3c0.4,0,0.7,0.1,1,0.4c0.3,0.3,0.4,0.6,0.4,1
			v5.9c0,0.4-0.1,0.7-0.4,1c-0.3,0.3-0.6,0.4-1,0.4h-9.1v1.7h10.4v3.5h-12.6c-0.4,0-0.7-0.1-1-0.4c-0.3-0.3-0.4-0.6-0.4-1V342.8z
			 M159.8,344.9v1.8h6.9v-1.8H159.8z"/>
		<path fill="#1D1D1B" d="M176.5,355.4h-3.6v-19.1h3.6v6.6c0-0.4,0.1-0.7,0.4-1c0.3-0.3,0.6-0.4,1-0.4h7.7c0.4,0,0.7,0.1,1,0.4
			c0.3,0.3,0.4,0.6,0.4,1V354c0,0.4-0.1,0.7-0.4,1c-0.3,0.3-0.6,0.4-1,0.4h-7.7c-0.4,0-0.7-0.1-1-0.4c-0.3-0.3-0.4-0.6-0.4-1V355.4z
			 M176.5,351.9h6.9v-7h-5.5c-0.4,0-0.7,0.1-1,0.4c-0.3,0.3-0.4,0.6-0.4,1V351.9z"/>
		<path fill="#1D1D1B" d="M189.6,336.6c0-0.2,0.1-0.3,0.3-0.3h2.9c0.2,0,0.3,0.1,0.3,0.3v2.8c0,0.2-0.1,0.3-0.3,0.3H190
			c-0.2,0-0.3-0.1-0.3-0.3V336.6z M193.2,355.4h-3.6v-13.9h3.6V355.4z"/>
		<path fill="#1D1D1B" d="M199.5,355.4h-3.6v-13.9h3.6v1.4c0-0.4,0.1-0.7,0.4-1c0.3-0.3,0.6-0.4,1-0.4h4.1c0.4,0,0.7,0.1,1,0.4
			c0.3,0.3,0.4,0.6,0.4,1v3h-3.6v-0.9h-1.9c-0.4,0-0.7,0.1-1,0.4c-0.3,0.3-0.4,0.6-0.4,1V355.4z"/>
		<path fill="#1D1D1B" d="M218.9,354c0,0.4-0.1,0.7-0.4,1c-0.3,0.3-0.6,0.4-1,0.4h-7.7c-0.4,0-0.7-0.1-1-0.4c-0.3-0.3-0.4-0.6-0.4-1
			v-11.1c0-0.4,0.1-0.7,0.4-1c0.3-0.3,0.6-0.4,1-0.4h7.7c0.4,0,0.7,0.1,1,0.4c0.3,0.3,0.4,0.6,0.4,1v-6.6h3.6v19.1h-3.6V354z
			 M217.5,351.9c0.4,0,0.7-0.1,1-0.4c0.3-0.3,0.4-0.6,0.4-1v-5.6h-6.9v7H217.5z"/>
	</g>
</g>
<g>
	<g>
		<path fill="#FFFFFF" d="M104.7,448.3H85.1c-0.3,0-0.6-0.3-0.6-0.6c0-0.3,0.3-0.6,0.6-0.6h19.6c0.3,0,0.6,0.3,0.6,0.6
			C105.4,448,105,448.3,104.7,448.3z"/>
		<path fill="#FFFFFF" d="M119.7,454.5H88.4c-0.3,0-0.6-0.3-0.6-0.6c0-0.3,0.3-0.6,0.6-0.6h31.4c0.3,0,0.6,0.3,0.6,0.6
			C120.4,454.3,120.1,454.5,119.7,454.5z"/>
		<path fill="#FFFFFF" d="M99.1,445.1H84c-0.3,0-0.6-0.3-0.6-0.6c0-0.3,0.3-0.6,0.6-0.6h15.1c0.3,0,0.6,0.3,0.6,0.6
			C99.8,444.8,99.5,445.1,99.1,445.1z"/>
		<path fill="#FFFFFF" d="M121.7,457.7H90.4c-0.3,0-0.6-0.3-0.6-0.6c0-0.3,0.3-0.6,0.6-0.6h31.3c0.3,0,0.6,0.3,0.6,0.6
			C122.4,457.4,122,457.7,121.7,457.7z"/>
		<path fill="#FFFFFF" d="M94.2,442H83.4c-0.3,0-0.6-0.3-0.6-0.6s0.3-0.6,0.6-0.6h10.8c0.3,0,0.6,0.3,0.6,0.6S94.5,442,94.2,442z"/>
		<path fill="#FFFFFF" d="M90.7,438.9h-7.2c-0.3,0-0.6-0.3-0.6-0.6c0-0.3,0.3-0.6,0.6-0.6h7.2c0.3,0,0.6,0.3,0.6,0.6
			C91.3,438.6,91.1,438.9,90.7,438.9z"/>
		<path fill="#FFFFFF" d="M120.3,445.1h-4.1c-0.3,0-0.6-0.3-0.6-0.6c0-0.3,0.3-0.6,0.6-0.6h4.1c0.3,0,0.6,0.3,0.6,0.6
			C120.9,444.8,120.7,445.1,120.3,445.1z"/>
		<path fill="#FFFFFF" d="M124.1,460.8H93c-0.3,0-0.6-0.3-0.6-0.6s0.3-0.6,0.6-0.6h31.1c0.3,0,0.6,0.3,0.6,0.6
			S124.4,460.8,124.1,460.8z"/>
		<path fill="#FFFFFF" d="M127.5,463.9H96.4c-0.3,0-0.6-0.3-0.6-0.6c0-0.3,0.3-0.6,0.6-0.6h31.1c0.3,0,0.6,0.3,0.6,0.6
			C128.1,463.6,127.8,463.9,127.5,463.9z"/>
		<path fill="#FFFFFF" d="M131.9,467h-29.2c-0.3,0-0.6-0.3-0.6-0.6c0-0.3,0.3-0.6,0.6-0.6h29.2c0.3,0,0.6,0.3,0.6,0.6
			C132.5,466.8,132.2,467,131.9,467z"/>
		<path fill="#FFFFFF" d="M125.9,448.3h-14.8c-0.3,0-0.6-0.3-0.6-0.6c0-0.3,0.3-0.6,0.6-0.6h14.8c0.3,0,0.6,0.3,0.6,0.6
			C126.5,448,126.2,448.3,125.9,448.3z"/>
		<path fill="#FFFFFF" d="M89.1,435.7h-4.6c-0.3,0-0.6-0.3-0.6-0.6c0-0.3,0.3-0.6,0.6-0.6h4.6c0.3,0,0.6,0.3,0.6,0.6
			C89.7,435.5,89.5,435.7,89.1,435.7z"/>
		<path fill="#FFFFFF" d="M148.9,473.3h-44.8c-0.3,0-0.6-0.3-0.6-0.6c0-0.3,0.3-0.6,0.6-0.6h44.8c0.3,0,0.6,0.3,0.6,0.6
			C149.5,473,149.2,473.3,148.9,473.3z"/>
		<path fill="#FFFFFF" d="M120.1,451.4H86.6c-0.3,0-0.6-0.3-0.6-0.6c0-0.3,0.3-0.6,0.6-0.6h33.5c0.3,0,0.6,0.3,0.6,0.6
			C120.7,451.1,120.4,451.4,120.1,451.4z"/>
		<path fill="#FFFFFF" d="M89.3,432.6H87c-0.3,0-0.6-0.3-0.6-0.6c0-0.3,0.3-0.6,0.6-0.6h2.3c0.3,0,0.6,0.3,0.6,0.6
			C89.9,432.3,89.6,432.6,89.3,432.6z"/>
		<path fill="#FFFFFF" d="M103.8,488.3h-0.4c-0.3,0-0.6-0.3-0.6-0.6c0-0.3,0.3-0.6,0.6-0.6h0.4c0.3,0,0.6,0.3,0.6,0.6
			C104.5,488,104.2,488.3,103.8,488.3z"/>
		<path fill="#FFFFFF" d="M108.6,476.4h-5.2c-0.3,0-0.6-0.3-0.6-0.6s0.3-0.6,0.6-0.6h5.2c0.3,0,0.6,0.3,0.6,0.6
			S108.9,476.4,108.6,476.4z"/>
		<path fill="#FFFFFF" d="M138.1,470.2h-34.7c-0.3,0-0.6-0.3-0.6-0.6c0-0.3,0.3-0.6,0.6-0.6h34.7c0.3,0,0.6,0.3,0.6,0.6
			C138.8,469.9,138.5,470.2,138.1,470.2z"/>
		<path fill="#FFFFFF" d="M107.2,479.5h-5c-0.3,0-0.6-0.3-0.6-0.6c0-0.3,0.3-0.6,0.6-0.6h5c0.3,0,0.6,0.3,0.6,0.6
			C107.9,479.3,107.6,479.5,107.2,479.5z"/>
		<path fill="#FFFFFF" d="M141.5,476.4H123c-0.3,0-0.6-0.3-0.6-0.6s0.3-0.6,0.6-0.6h18.5c0.3,0,0.6,0.3,0.6,0.6
			S141.9,476.4,141.5,476.4z"/>
		<path fill="#FFFFFF" d="M104.8,485.8h-4.3c-0.3,0-0.6-0.3-0.6-0.6c0-0.3,0.3-0.6,0.6-0.6h4.3c0.3,0,0.6,0.3,0.6,0.6
			C105.5,485.5,105.1,485.8,104.8,485.8z"/>
		<path fill="#FFFFFF" d="M106,482.7h-4.9c-0.3,0-0.6-0.3-0.6-0.6c0-0.3,0.3-0.6,0.6-0.6h4.9c0.3,0,0.6,0.3,0.6,0.6
			C106.7,482.4,106.3,482.7,106,482.7z"/>
	</g>
	<g enable-background="new    ">
		<path fill="#FFFFFF" d="M120.7,502.8h-3.6v-19.1h3.6v6.6c0-0.4,0.1-0.7,0.4-1c0.3-0.3,0.6-0.4,1-0.4h7.7c0.4,0,0.7,0.1,1,0.4
			s0.4,0.6,0.4,1v11.1c0,0.4-0.1,0.7-0.4,1c-0.3,0.3-0.6,0.4-1,0.4h-7.7c-0.4,0-0.7-0.1-1-0.4c-0.3-0.3-0.4-0.6-0.4-1V502.8z
			 M120.7,499.3h6.9v-7h-5.5c-0.4,0-0.7,0.1-1,0.4c-0.3,0.3-0.4,0.6-0.4,1V499.3z"/>
		<path fill="#FFFFFF" d="M137.4,483.6v15.7h1.3v3.5h-3.5c-0.4,0-0.7-0.1-1-0.4c-0.3-0.3-0.4-0.6-0.4-1v-17.8H137.4z"/>
		<path fill="#FFFFFF" d="M150.6,488.9h3.6v13.9h-3.6v-1.4c0,0.4-0.1,0.7-0.4,1c-0.3,0.3-0.6,0.4-1,0.4h-6.5c-0.4,0-0.7-0.1-1-0.4
			c-0.3-0.3-0.4-0.6-0.4-1v-12.5h3.6v10.4h4.3c0.4,0,0.7-0.1,1-0.4c0.3-0.3,0.4-0.6,0.4-1V488.9z"/>
		<path fill="#FFFFFF" d="M156.9,490.3c0-0.4,0.1-0.7,0.4-1c0.3-0.3,0.6-0.4,1-0.4h11.3c0.4,0,0.7,0.1,1,0.4s0.4,0.6,0.4,1v5.9
			c0,0.4-0.1,0.7-0.4,1s-0.6,0.4-1,0.4h-9.1v1.7h10.4v3.5h-12.6c-0.4,0-0.7-0.1-1-0.4c-0.3-0.3-0.4-0.6-0.4-1V490.3z M160.4,492.3
			v1.8h6.9v-1.8H160.4z"/>
		<path fill="#FFFFFF" d="M177.2,502.8h-3.6v-19.1h3.6v6.6c0-0.4,0.1-0.7,0.4-1c0.3-0.3,0.6-0.4,1-0.4h7.7c0.4,0,0.7,0.1,1,0.4
			s0.4,0.6,0.4,1v11.1c0,0.4-0.1,0.7-0.4,1c-0.3,0.3-0.6,0.4-1,0.4h-7.7c-0.4,0-0.7-0.1-1-0.4c-0.3-0.3-0.4-0.6-0.4-1V502.8z
			 M177.2,499.3h6.9v-7h-5.5c-0.4,0-0.7,0.1-1,0.4c-0.3,0.3-0.4,0.6-0.4,1V499.3z"/>
		<path fill="#FFFFFF" d="M190.3,484c0-0.2,0.1-0.3,0.3-0.3h2.9c0.2,0,0.3,0.1,0.3,0.3v2.8c0,0.2-0.1,0.3-0.3,0.3h-2.9
			c-0.2,0-0.3-0.1-0.3-0.3V484z M193.9,502.8h-3.6v-13.9h3.6V502.8z"/>
		<path fill="#FFFFFF" d="M200.1,502.8h-3.6v-13.9h3.6v1.4c0-0.4,0.1-0.7,0.4-1c0.3-0.3,0.6-0.4,1-0.4h4.1c0.4,0,0.7,0.1,1,0.4
			c0.3,0.3,0.4,0.6,0.4,1v3h-3.6v-0.9h-1.9c-0.4,0-0.7,0.1-1,0.4c-0.3,0.3-0.4,0.6-0.4,1V502.8z"/>
		<path fill="#FFFFFF" d="M219.6,501.4c0,0.4-0.1,0.7-0.4,1c-0.3,0.3-0.6,0.4-1,0.4h-7.7c-0.4,0-0.7-0.1-1-0.4
			c-0.3-0.3-0.4-0.6-0.4-1v-11.1c0-0.4,0.1-0.7,0.4-1c0.3-0.3,0.6-0.4,1-0.4h7.7c0.4,0,0.7,0.1,1,0.4c0.3,0.3,0.4,0.6,0.4,1v-6.6
			h3.6v19.1h-3.6V501.4z M218.2,499.3c0.4,0,0.7-0.1,1-0.4c0.3-0.3,0.4-0.6,0.4-1v-5.6h-6.9v7H218.2z"/>
	</g>
</g>
<rect x="306" y="396" fill="#30FDE8" width="306" height="147.4"/>
<linearGradient id="SVGID_1_" gradientUnits="userSpaceOnUse" x1="891.1" y1="577.35" x2="1782.2" y2="577.35" gradientTransform="matrix(0.3434 0 0 -0.3434 0 520.5325)">
	<stop  offset="0" style="stop-color:#7C65D1"/>
	<stop  offset="1" style="stop-color:#5F21FD"/>
</linearGradient>
<rect x="306" y="248.6" fill="url(#SVGID_1_)" width="306" height="147.4"/>
<g>
	<g>
		<path fill="#30FDE8" d="M410.1,300.8h-19.6c-0.3,0-0.6-0.3-0.6-0.6s0.3-0.6,0.6-0.6H410c0.3,0,0.6,0.3,0.6,0.6
			S410.4,300.8,410.1,300.8z"/>
		<path fill="#30FDE8" d="M425.1,307.1h-31.4c-0.3,0-0.6-0.3-0.6-0.6c0-0.3,0.3-0.6,0.6-0.6h31.4c0.3,0,0.6,0.3,0.6,0.6
			C425.7,306.8,425.4,307.1,425.1,307.1z"/>
		<path fill="#30FDE8" d="M404.5,297.7h-15.1c-0.3,0-0.6-0.3-0.6-0.6c0-0.3,0.3-0.6,0.6-0.6h15.1c0.3,0,0.6,0.3,0.6,0.6
			C405.1,297.4,404.8,297.7,404.5,297.7z"/>
		<path fill="#30FDE8" d="M427.1,310.2h-31.3c-0.3,0-0.6-0.3-0.6-0.6c0-0.3,0.3-0.6,0.6-0.6h31.3c0.3,0,0.6,0.3,0.6,0.6
			C427.7,309.9,427.4,310.2,427.1,310.2z"/>
		<path fill="#30FDE8" d="M399.6,294.6h-10.8c-0.3,0-0.6-0.3-0.6-0.6c0-0.3,0.3-0.6,0.6-0.6h10.8c0.3,0,0.6,0.3,0.6,0.6
			C400.2,294.3,399.9,294.6,399.6,294.6z"/>
		<path fill="#30FDE8" d="M396.1,291.5h-7.2c-0.3,0-0.6-0.3-0.6-0.6c0-0.3,0.3-0.6,0.6-0.6h7.2c0.3,0,0.6,0.3,0.6,0.6
			C396.7,291.2,396.4,291.5,396.1,291.5z"/>
		<path fill="#30FDE8" d="M425.7,297.7h-4.1c-0.3,0-0.6-0.3-0.6-0.6c0-0.3,0.3-0.6,0.6-0.6h4.1c0.3,0,0.6,0.3,0.6,0.6
			C426.3,297.4,426,297.7,425.7,297.7z"/>
		<path fill="#30FDE8" d="M429.5,313.3h-31.1c-0.3,0-0.6-0.3-0.6-0.6c0-0.3,0.3-0.6,0.6-0.6h31.1c0.3,0,0.6,0.3,0.6,0.6
			C430.1,313.1,429.8,313.3,429.5,313.3z"/>
		<path fill="#30FDE8" d="M432.9,316.5h-31.1c-0.3,0-0.6-0.3-0.6-0.6c0-0.3,0.3-0.6,0.6-0.6h31.1c0.3,0,0.6,0.3,0.6,0.6
			C433.5,316.2,433.2,316.5,432.9,316.5z"/>
		<path fill="#30FDE8" d="M437.2,319.6h-29.2c-0.3,0-0.6-0.3-0.6-0.6c0-0.3,0.3-0.6,0.6-0.6h29.2c0.3,0,0.6,0.3,0.6,0.6
			C437.9,319.3,437.6,319.6,437.2,319.6z"/>
		<path fill="#30FDE8" d="M431.3,300.8h-14.8c-0.3,0-0.6-0.3-0.6-0.6s0.3-0.6,0.6-0.6h14.8c0.3,0,0.6,0.3,0.6,0.6
			S431.6,300.8,431.3,300.8z"/>
		<path fill="#30FDE8" d="M394.5,288.3h-4.6c-0.3,0-0.6-0.3-0.6-0.6c0-0.3,0.3-0.6,0.6-0.6h4.6c0.3,0,0.6,0.3,0.6,0.6
			C395.1,288.1,394.8,288.3,394.5,288.3z"/>
		<path fill="#30FDE8" d="M454.3,325.9h-44.8c-0.3,0-0.6-0.3-0.6-0.6c0-0.3,0.3-0.6,0.6-0.6h44.8c0.3,0,0.6,0.3,0.6,0.6
			C454.9,325.6,454.6,325.9,454.3,325.9z"/>
		<path fill="#30FDE8" d="M425.4,304H392c-0.3,0-0.6-0.3-0.6-0.6c0-0.3,0.3-0.6,0.6-0.6h33.5c0.3,0,0.6,0.3,0.6,0.6
			C426.1,303.7,425.8,304,425.4,304z"/>
		<path fill="#30FDE8" d="M394.7,285.2h-2.3c-0.3,0-0.6-0.3-0.6-0.6s0.3-0.6,0.6-0.6h2.3c0.3,0,0.6,0.3,0.6,0.6
			S395,285.2,394.7,285.2z"/>
		<path fill="#30FDE8" d="M409.2,340.9h-0.4c-0.3,0-0.6-0.3-0.6-0.6s0.3-0.6,0.6-0.6h0.4c0.3,0,0.6,0.3,0.6,0.6
			S409.5,340.9,409.2,340.9z"/>
		<path fill="#30FDE8" d="M413.9,329h-5.2c-0.3,0-0.6-0.3-0.6-0.6c0-0.3,0.3-0.6,0.6-0.6h5.2c0.3,0,0.6,0.3,0.6,0.6
			C414.5,328.7,414.3,329,413.9,329z"/>
		<path fill="#30FDE8" d="M443.5,322.7h-34.7c-0.3,0-0.6-0.3-0.6-0.6c0-0.3,0.3-0.6,0.6-0.6h34.7c0.3,0,0.6,0.3,0.6,0.6
			C444.1,322.4,443.8,322.7,443.5,322.7z"/>
		<path fill="#30FDE8" d="M412.6,332.1h-5c-0.3,0-0.6-0.3-0.6-0.6s0.3-0.6,0.6-0.6h5c0.3,0,0.6,0.3,0.6,0.6S412.9,332.1,412.6,332.1
			z"/>
		<path fill="#30FDE8" d="M446.9,329h-18.5c-0.3,0-0.6-0.3-0.6-0.6c0-0.3,0.3-0.6,0.6-0.6h18.5c0.3,0,0.6,0.3,0.6,0.6
			C447.5,328.7,447.2,329,446.9,329z"/>
		<path fill="#30FDE8" d="M410.2,338.4h-4.3c-0.3,0-0.6-0.3-0.6-0.6c0-0.3,0.3-0.6,0.6-0.6h4.3c0.3,0,0.6,0.3,0.6,0.6
			C410.8,338.1,410.5,338.4,410.2,338.4z"/>
		<path fill="#30FDE8" d="M411.4,335.2h-4.9c-0.3,0-0.6-0.3-0.6-0.6c0-0.3,0.3-0.6,0.6-0.6h4.9c0.3,0,0.6,0.3,0.6,0.6
			C412,335,411.7,335.2,411.4,335.2z"/>
	</g>
	<g enable-background="new    ">
		<path fill="#30FDE8" d="M426,355.4h-3.6v-19.1h3.6v6.6c0-0.4,0.1-0.7,0.4-1c0.3-0.3,0.6-0.4,1-0.4h7.7c0.4,0,0.7,0.1,1,0.4
			c0.3,0.3,0.4,0.6,0.4,1V354c0,0.4-0.1,0.7-0.4,1c-0.3,0.3-0.6,0.4-1,0.4h-7.7c-0.4,0-0.7-0.1-1-0.4c-0.3-0.3-0.4-0.6-0.4-1V355.4z
			 M426,351.9h6.9v-7h-5.5c-0.4,0-0.7,0.1-1,0.4c-0.3,0.3-0.4,0.6-0.4,1V351.9z"/>
		<path fill="#30FDE8" d="M442.7,336.2v15.7h1.3v3.5h-3.5c-0.4,0-0.7-0.1-1-0.4c-0.3-0.3-0.4-0.6-0.4-1v-17.8H442.7z"/>
		<path fill="#30FDE8" d="M455.9,341.4h3.6v13.9h-3.6V354c0,0.4-0.1,0.7-0.4,1c-0.3,0.3-0.6,0.4-1,0.4h-6.5c-0.4,0-0.7-0.1-1-0.4
			c-0.3-0.3-0.4-0.6-0.4-1v-12.5h3.6v10.4h4.3c0.4,0,0.7-0.1,1-0.4c0.3-0.3,0.4-0.6,0.4-1V341.4z"/>
		<path fill="#30FDE8" d="M462.2,342.8c0-0.4,0.1-0.7,0.4-1c0.3-0.3,0.6-0.4,1-0.4h11.3c0.4,0,0.7,0.1,1,0.4c0.3,0.3,0.4,0.6,0.4,1
			v5.9c0,0.4-0.1,0.7-0.4,1c-0.3,0.3-0.6,0.4-1,0.4h-9.1v1.7h10.4v3.5h-12.6c-0.4,0-0.7-0.1-1-0.4c-0.3-0.3-0.4-0.6-0.4-1V342.8z
			 M465.8,344.9v1.8h6.9v-1.8H465.8z"/>
		<path fill="#30FDE8" d="M482.5,355.4h-3.6v-19.1h3.6v6.6c0-0.4,0.1-0.7,0.4-1c0.3-0.3,0.6-0.4,1-0.4h7.7c0.4,0,0.7,0.1,1,0.4
			c0.3,0.3,0.4,0.6,0.4,1V354c0,0.4-0.1,0.7-0.4,1c-0.3,0.3-0.6,0.4-1,0.4h-7.7c-0.4,0-0.7-0.1-1-0.4c-0.3-0.3-0.4-0.6-0.4-1V355.4z
			 M482.5,351.9h6.9v-7h-5.5c-0.4,0-0.7,0.1-1,0.4c-0.3,0.3-0.4,0.6-0.4,1V351.9z"/>
		<path fill="#30FDE8" d="M495.6,336.6c0-0.2,0.1-0.3,0.3-0.3h2.9c0.2,0,0.3,0.1,0.3,0.3v2.8c0,0.2-0.1,0.3-0.3,0.3H496
			c-0.2,0-0.3-0.1-0.3-0.3V336.6z M499.2,355.4h-3.6v-13.9h3.6V355.4z"/>
		<path fill="#30FDE8" d="M505.5,355.4h-3.6v-13.9h3.6v1.4c0-0.4,0.1-0.7,0.4-1c0.3-0.3,0.6-0.4,1-0.4h4.1c0.4,0,0.7,0.1,1,0.4
			c0.3,0.3,0.4,0.6,0.4,1v3h-3.6v-0.9h-1.9c-0.4,0-0.7,0.1-1,0.4c-0.3,0.3-0.4,0.6-0.4,1V355.4z"/>
		<path fill="#30FDE8" d="M524.9,354c0,0.4-0.1,0.7-0.4,1c-0.3,0.3-0.6,0.4-1,0.4h-7.7c-0.4,0-0.7-0.1-1-0.4c-0.3-0.3-0.4-0.6-0.4-1
			v-11.1c0-0.4,0.1-0.7,0.4-1c0.3-0.3,0.6-0.4,1-0.4h7.7c0.4,0,0.7,0.1,1,0.4c0.3,0.3,0.4,0.6,0.4,1v-6.6h3.6v19.1h-3.6V354z
			 M523.5,351.9c0.4,0,0.7-0.1,1-0.4c0.3-0.3,0.4-0.6,0.4-1v-5.6h-6.9v7H523.5z"/>
	</g>
</g>
<g>
	<g>
		<path fill="#5F21FD" d="M410.7,448.3h-19.6c-0.3,0-0.6-0.3-0.6-0.6c0-0.3,0.3-0.6,0.6-0.6h19.6c0.3,0,0.6,0.3,0.6,0.6
			C411.3,448,411,448.3,410.7,448.3z"/>
		<path fill="#5F21FD" d="M425.7,454.5h-31.4c-0.3,0-0.6-0.3-0.6-0.6c0-0.3,0.3-0.6,0.6-0.6h31.4c0.3,0,0.6,0.3,0.6,0.6
			C426.4,454.3,426.1,454.5,425.7,454.5z"/>
		<path fill="#5F21FD" d="M405.1,445.1H390c-0.3,0-0.6-0.3-0.6-0.6c0-0.3,0.3-0.6,0.6-0.6h15.1c0.3,0,0.6,0.3,0.6,0.6
			C405.8,444.8,405.5,445.1,405.1,445.1z"/>
		<path fill="#5F21FD" d="M427.7,457.7h-31.3c-0.3,0-0.6-0.3-0.6-0.6c0-0.3,0.3-0.6,0.6-0.6h31.3c0.3,0,0.6,0.3,0.6,0.6
			C428.3,457.4,428,457.7,427.7,457.7z"/>
		<path fill="#5F21FD" d="M400.2,442h-10.8c-0.3,0-0.6-0.3-0.6-0.6s0.3-0.6,0.6-0.6h10.8c0.3,0,0.6,0.3,0.6,0.6S400.5,442,400.2,442
			z"/>
		<path fill="#5F21FD" d="M396.7,438.9h-7.2c-0.3,0-0.6-0.3-0.6-0.6c0-0.3,0.3-0.6,0.6-0.6h7.2c0.3,0,0.6,0.3,0.6,0.6
			C397.3,438.6,397.1,438.9,396.7,438.9z"/>
		<path fill="#5F21FD" d="M426.3,445.1h-4.1c-0.3,0-0.6-0.3-0.6-0.6c0-0.3,0.3-0.6,0.6-0.6h4.1c0.3,0,0.6,0.3,0.6,0.6
			C426.9,444.8,426.7,445.1,426.3,445.1z"/>
		<path fill="#5F21FD" d="M430.1,460.8H399c-0.3,0-0.6-0.3-0.6-0.6s0.3-0.6,0.6-0.6h31.1c0.3,0,0.6,0.3,0.6,0.6
			S430.4,460.8,430.1,460.8z"/>
		<path fill="#5F21FD" d="M433.5,463.9h-31.1c-0.3,0-0.6-0.3-0.6-0.6c0-0.3,0.3-0.6,0.6-0.6h31.1c0.3,0,0.6,0.3,0.6,0.6
			C434.1,463.6,433.8,463.9,433.5,463.9z"/>
		<path fill="#5F21FD" d="M437.9,467h-29.2c-0.3,0-0.6-0.3-0.6-0.6c0-0.3,0.3-0.6,0.6-0.6h29.2c0.3,0,0.6,0.3,0.6,0.6
			C438.5,466.8,438.2,467,437.9,467z"/>
		<path fill="#5F21FD" d="M431.9,448.3h-14.8c-0.3,0-0.6-0.3-0.6-0.6c0-0.3,0.3-0.6,0.6-0.6h14.8c0.3,0,0.6,0.3,0.6,0.6
			C432.5,448,432.2,448.3,431.9,448.3z"/>
		<path fill="#5F21FD" d="M395.1,435.7h-4.6c-0.3,0-0.6-0.3-0.6-0.6c0-0.3,0.3-0.6,0.6-0.6h4.6c0.3,0,0.6,0.3,0.6,0.6
			C395.7,435.5,395.4,435.7,395.1,435.7z"/>
		<path fill="#5F21FD" d="M454.9,473.3h-44.8c-0.3,0-0.6-0.3-0.6-0.6c0-0.3,0.3-0.6,0.6-0.6h44.8c0.3,0,0.6,0.3,0.6,0.6
			C455.5,473,455.2,473.3,454.9,473.3z"/>
		<path fill="#5F21FD" d="M426.1,451.4h-33.5c-0.3,0-0.6-0.3-0.6-0.6c0-0.3,0.3-0.6,0.6-0.6h33.5c0.3,0,0.6,0.3,0.6,0.6
			C426.7,451.1,426.4,451.4,426.1,451.4z"/>
		<path fill="#5F21FD" d="M395.3,432.6H393c-0.3,0-0.6-0.3-0.6-0.6c0-0.3,0.3-0.6,0.6-0.6h2.3c0.3,0,0.6,0.3,0.6,0.6
			C395.9,432.3,395.6,432.6,395.3,432.6z"/>
		<path fill="#5F21FD" d="M409.8,488.3h-0.4c-0.3,0-0.6-0.3-0.6-0.6c0-0.3,0.3-0.6,0.6-0.6h0.4c0.3,0,0.6,0.3,0.6,0.6
			C410.5,488,410.2,488.3,409.8,488.3z"/>
		<path fill="#5F21FD" d="M414.6,476.4h-5.2c-0.3,0-0.6-0.3-0.6-0.6s0.3-0.6,0.6-0.6h5.2c0.3,0,0.6,0.3,0.6,0.6
			S414.9,476.4,414.6,476.4z"/>
		<path fill="#5F21FD" d="M444.1,470.2h-34.7c-0.3,0-0.6-0.3-0.6-0.6c0-0.3,0.3-0.6,0.6-0.6h34.7c0.3,0,0.6,0.3,0.6,0.6
			C444.7,469.9,444.5,470.2,444.1,470.2z"/>
		<path fill="#5F21FD" d="M413.2,479.5h-5c-0.3,0-0.6-0.3-0.6-0.6c0-0.3,0.3-0.6,0.6-0.6h5c0.3,0,0.6,0.3,0.6,0.6
			C413.9,479.3,413.6,479.5,413.2,479.5z"/>
		<path fill="#5F21FD" d="M447.5,476.4H429c-0.3,0-0.6-0.3-0.6-0.6s0.3-0.6,0.6-0.6h18.5c0.3,0,0.6,0.3,0.6,0.6
			S447.9,476.4,447.5,476.4z"/>
		<path fill="#5F21FD" d="M410.8,485.8h-4.3c-0.3,0-0.6-0.3-0.6-0.6c0-0.3,0.3-0.6,0.6-0.6h4.3c0.3,0,0.6,0.3,0.6,0.6
			C411.5,485.5,411.1,485.8,410.8,485.8z"/>
		<path fill="#5F21FD" d="M412,482.7h-4.9c-0.3,0-0.6-0.3-0.6-0.6c0-0.3,0.3-0.6,0.6-0.6h4.9c0.3,0,0.6,0.3,0.6,0.6
			C412.6,482.4,412.3,482.7,412,482.7z"/>
	</g>
	<g enable-background="new    ">
		<path fill="#5F21FD" d="M426.7,502.8h-3.6v-19.1h3.6v6.6c0-0.4,0.1-0.7,0.4-1c0.3-0.3,0.6-0.4,1-0.4h7.7c0.4,0,0.7,0.1,1,0.4
			s0.4,0.6,0.4,1v11.1c0,0.4-0.1,0.7-0.4,1c-0.3,0.3-0.6,0.4-1,0.4h-7.7c-0.4,0-0.7-0.1-1-0.4c-0.3-0.3-0.4-0.6-0.4-1V502.8z
			 M426.7,499.3h6.9v-7h-5.5c-0.4,0-0.7,0.1-1,0.4c-0.3,0.3-0.4,0.6-0.4,1V499.3z"/>
		<path fill="#5F21FD" d="M443.4,483.6v15.7h1.3v3.5h-3.5c-0.4,0-0.7-0.1-1-0.4c-0.3-0.3-0.4-0.6-0.4-1v-17.8H443.4z"/>
		<path fill="#5F21FD" d="M456.6,488.9h3.6v13.9h-3.6v-1.4c0,0.4-0.1,0.7-0.4,1c-0.3,0.3-0.6,0.4-1,0.4h-6.5c-0.4,0-0.7-0.1-1-0.4
			c-0.3-0.3-0.4-0.6-0.4-1v-12.5h3.6v10.4h4.3c0.4,0,0.7-0.1,1-0.4s0.4-0.6,0.4-1V488.9z"/>
		<path fill="#5F21FD" d="M462.8,490.3c0-0.4,0.1-0.7,0.4-1c0.3-0.3,0.6-0.4,1-0.4h11.3c0.4,0,0.7,0.1,1,0.4s0.4,0.6,0.4,1v5.9
			c0,0.4-0.1,0.7-0.4,1s-0.6,0.4-1,0.4h-9.1v1.7h10.4v3.5h-12.6c-0.4,0-0.7-0.1-1-0.4c-0.3-0.3-0.4-0.6-0.4-1V490.3z M466.4,492.3
			v1.8h6.9v-1.8H466.4z"/>
		<path fill="#5F21FD" d="M483.2,502.8h-3.6v-19.1h3.6v6.6c0-0.4,0.1-0.7,0.4-1c0.3-0.3,0.6-0.4,1-0.4h7.7c0.4,0,0.7,0.1,1,0.4
			s0.4,0.6,0.4,1v11.1c0,0.4-0.1,0.7-0.4,1c-0.3,0.3-0.6,0.4-1,0.4h-7.7c-0.4,0-0.7-0.1-1-0.4c-0.3-0.3-0.4-0.6-0.4-1V502.8z
			 M483.2,499.3h6.9v-7h-5.5c-0.4,0-0.7,0.1-1,0.4c-0.3,0.3-0.4,0.6-0.4,1V499.3z"/>
		<path fill="#5F21FD" d="M496.3,484c0-0.2,0.1-0.3,0.3-0.3h2.9c0.2,0,0.3,0.1,0.3,0.3v2.8c0,0.2-0.1,0.3-0.3,0.3h-2.9
			c-0.2,0-0.3-0.1-0.3-0.3V484z M499.9,502.8h-3.6v-13.9h3.6V502.8z"/>
		<path fill="#5F21FD" d="M506.1,502.8h-3.6v-13.9h3.6v1.4c0-0.4,0.1-0.7,0.4-1c0.3-0.3,0.6-0.4,1-0.4h4.1c0.4,0,0.7,0.1,1,0.4
			c0.3,0.3,0.4,0.6,0.4,1v3h-3.6v-0.9h-1.9c-0.4,0-0.7,0.1-1,0.4c-0.3,0.3-0.4,0.6-0.4,1V502.8z"/>
		<path fill="#5F21FD" d="M525.6,501.4c0,0.4-0.1,0.7-0.4,1c-0.3,0.3-0.6,0.4-1,0.4h-7.7c-0.4,0-0.7-0.1-1-0.4
			c-0.3-0.3-0.4-0.6-0.4-1v-11.1c0-0.4,0.1-0.7,0.4-1c0.3-0.3,0.6-0.4,1-0.4h7.7c0.4,0,0.7,0.1,1,0.4s0.4,0.6,0.4,1v-6.6h3.6v19.1
			h-3.6V501.4z M524.2,499.3c0.4,0,0.7-0.1,1-0.4s0.4-0.6,0.4-1v-5.6h-6.9v7H524.2z"/>
	</g>
</g>
</svg>
